<svg xmlns="http://www.w3.org/2000/svg" xmlns:xlink="http://www.w3.org/1999/xlink" width="500" zoomAndPan="magnify" viewBox="0 0 375 374.999991" height="500" preserveAspectRatio="xMidYMid meet" version="1.0"><defs><clipPath id="17ac448c0b"><path d="M 24 24 L 351 24 L 351 351 L 24 351 Z M 24 24 " clip-rule="nonzero"/></clipPath><clipPath id="9c99f746a1"><path d="M 187.496094 -0.359375 L 375.355469 187.503906 L 187.496094 375.363281 L -0.367188 187.503906 Z M 187.496094 -0.359375 " clip-rule="nonzero"/></clipPath><clipPath id="d6fa95352f"><path d="M 229.921875 42.066406 L 332.929688 145.074219 C 344.179688 156.328125 350.503906 171.589844 350.503906 187.503906 C 350.503906 203.414062 344.179688 218.675781 332.929688 229.929688 L 229.921875 332.9375 C 218.667969 344.1875 203.40625 350.511719 187.496094 350.511719 C 171.582031 350.511719 156.320312 344.1875 145.066406 332.9375 L 42.058594 229.929688 C 30.808594 218.675781 24.488281 203.414062 24.488281 187.503906 C 24.488281 171.589844 30.808594 156.328125 42.058594 145.074219 L 145.066406 42.066406 C 156.320312 30.816406 171.582031 24.496094 187.496094 24.496094 C 203.40625 24.496094 218.667969 30.816406 229.921875 42.066406 Z M 229.921875 42.066406 " clip-rule="nonzero"/></clipPath><clipPath id="a44c12a189"><path d="M 24 24 L 351 24 L 351 351 L 24 351 Z M 24 24 " clip-rule="nonzero"/></clipPath><clipPath id="d88a20499d"><path d="M 187.496094 -0.359375 L 375.230469 187.378906 L 187.496094 375.113281 L -0.242188 187.378906 Z M 187.496094 -0.359375 " clip-rule="nonzero"/></clipPath><clipPath id="4b7ad137c0"><path d="M 187.496094 -2.84375 L 377.660156 187.320312 L 187.496094 377.484375 L -2.671875 187.320312 Z M 187.496094 -2.84375 " clip-rule="nonzero"/></clipPath><clipPath id="02fb7f1b98"><path d="M 229.917969 42.066406 L 332.921875 145.070312 C 344.175781 156.320312 350.496094 171.582031 350.496094 187.496094 C 350.496094 203.40625 344.175781 218.667969 332.921875 229.917969 L 229.917969 332.921875 C 218.667969 344.175781 203.40625 350.496094 187.496094 350.496094 C 171.582031 350.496094 156.320312 344.175781 145.070312 332.921875 L 42.066406 229.917969 C 30.816406 218.667969 24.492188 203.40625 24.492188 187.496094 C 24.492188 171.582031 30.816406 156.320312 42.066406 145.070312 L 145.070312 42.066406 C 156.320312 30.816406 171.582031 24.492188 187.496094 24.492188 C 203.40625 24.492188 218.667969 30.816406 229.917969 42.066406 Z M 229.917969 42.066406 " clip-rule="nonzero"/></clipPath><clipPath id="08b1aa570f"><path d="M 128.25 128.011719 L 173.273438 128.011719 L 173.273438 263.011719 L 128.25 263.011719 Z M 128.25 128.011719 " clip-rule="nonzero"/></clipPath><clipPath id="5cbbd8add7"><path d="M 128.25 128.011719 L 263.25 128.011719 L 263.25 173.035156 L 128.25 173.035156 Z M 128.25 128.011719 " clip-rule="nonzero"/></clipPath></defs><g clip-path="url(#17ac448c0b)"><g clip-path="url(#9c99f746a1)"><g clip-path="url(#d6fa95352f)"><path fill="#db331a" d="M 187.496094 -0.359375 L 375.355469 187.503906 L 187.496094 375.363281 L -0.367188 187.503906 Z M 187.496094 -0.359375 " fill-opacity="1" fill-rule="nonzero"/></g></g></g><g clip-path="url(#a44c12a189)"><g clip-path="url(#d88a20499d)"><g clip-path="url(#4b7ad137c0)"><g clip-path="url(#02fb7f1b98)"><path stroke-linecap="butt" transform="matrix(0.53033, 0.53033, -0.53033, 0.53033, 187.494412, -0.358451)" fill="none" stroke-linejoin="miter" d="M 79.995856 0.00122586 L 274.221896 0.00122586 C 295.438784 -0.00245699 315.786519 8.427582 330.790442 23.431505 C 345.790683 38.431745 354.220722 58.779481 354.217039 79.996368 L 354.217039 274.222409 C 354.220722 295.439296 345.790683 315.787032 330.790442 330.787272 C 315.786519 345.791195 295.438784 354.221234 274.221896 354.217551 L 79.995856 354.217551 C 58.782651 354.217551 38.431233 345.791195 23.430993 330.790954 C 8.42707 315.787032 0.000713795 295.435613 0.000713795 274.222409 L 0.000713795 79.996368 C 0.000713795 58.783164 8.42707 38.431745 23.430993 23.427822 C 38.431233 8.427582 58.782651 0.00122586 79.995856 0.00122586 Z M 79.995856 0.00122586 " stroke="#f6f7eb" stroke-width="64" stroke-opacity="1" stroke-miterlimit="4"/></g></g></g></g><g clip-path="url(#08b1aa570f)"><path fill="#f6f7eb" d="M 128.25 128.011719 L 173.273438 128.011719 L 173.273438 263.082031 L 128.25 263.082031 Z M 128.25 128.011719 " fill-opacity="1" fill-rule="nonzero"/></g><g clip-path="url(#5cbbd8add7)"><path fill="#f6f7eb" d="M 128.25 173.035156 L 128.25 128.011719 L 263.320312 128.011719 L 263.320312 173.035156 Z M 128.25 173.035156 " fill-opacity="1" fill-rule="nonzero"/></g></svg>